<svg width="455" height="293" viewBox="0 0 455 293" fill="none" xmlns="http://www.w3.org/2000/svg">
<path d="M12.6158 92.3938C12.4806 92.3323 12.3515 92.2709 12.2163 92.2095" stroke="#7A1616" stroke-width="1.69" stroke-miterlimit="8.45"/>
<path d="M40.6148 87.4854H40.6079" stroke="#7A1616" stroke-width="1.69" stroke-miterlimit="8.45"/>
<path d="M42.3598 81.1764C42.3475 81.0719 42.3413 80.9737 42.3229 80.8754C41.4009 74.4619 33.3795 69.3384 23.5202 69.1787H22.5306C12.6713 69.3507 4.70526 74.5417 4.23196 81.1334C4.21352 81.2931 4.21352 81.4528 4.21352 81.6126C4.20123 82.0979 4.23811 82.577 4.30572 83.0501C4.48398 84.2296 4.8958 85.3599 5.52891 86.4288" stroke="#7A1616" stroke-width="1.69" stroke-miterlimit="8.45"/>
<path d="M1.94528 93.5239C1.32447 91.9697 0.838882 90.1206 0.845028 89.7766C0.888055 87.2394 2.16656 84.9173 4.31175 83.0436C4.41624 82.9515 4.52688 82.8593 4.63752 82.7672C7.91985 80.0703 13.0339 78.3748 18.7564 78.467C19.6108 78.4854 20.4591 78.5345 21.2827 78.6205C29.8573 79.5666 36.3728 84.5057 36.2806 90.354C36.2806 90.7288 36.2437 91.0974 36.1822 91.4537" stroke="#7A1616" stroke-width="1.69" stroke-miterlimit="8.45"/>
<path d="M46.4964 92.3753C47.2033 90.8456 47.1602 89.6232 47.1725 89.2853C47.2217 86.1645 45.3839 83.3018 42.3658 81.1701C42.3351 81.1517 42.3044 81.121 42.2675 81.1025C39.0897 78.891 34.621 77.478 29.6545 77.3982C26.6304 77.349 23.7783 77.7975 21.2828 78.6207C15.677 80.4821 11.823 84.2663 11.7493 88.6955C11.7493 89.1194 11.7677 89.5371 11.8353 89.9487L11.9091 90.3665C12.0566 91.0607 12.2963 91.7364 12.6282 92.3876" stroke="#7A1616" stroke-width="1.69" stroke-miterlimit="8.45"/>
<path d="M46.4964 92.3755L28.6157 139.856" stroke="#7A1616" stroke-width="1.69" stroke-miterlimit="8.45"/>
<path d="M1.13403 90.938L16.3962 139.162C13.8023 139.844 13.0463 140.919 13.0463 140.919L13.8576 203.524C13.8576 203.524 19.322 204.943 22.5736 204.999C25.8314 205.048 30.6503 203.807 30.6503 203.807L32.4698 140.759C32.4698 140.759 32.2669 139.549 29.6853 139.383C28.4314 139.303 25.2659 139.248 22.3339 139.217C19.2298 139.181 16.3962 139.168 16.3962 139.168" stroke="#7A1616" stroke-width="1.69" stroke-miterlimit="8.45"/>
<path d="M22.5797 204.28C23.5508 186.047 22.3276 139.217 22.3276 139.217" stroke="#7A1616" stroke-width="1.69" stroke-miterlimit="8.45"/>
<path d="M36.2437 91.8408L25.2534 139.26" stroke="#7A1616" stroke-width="1.69" stroke-miterlimit="8.45"/>
<path d="M11.823 89.9609L20.33 139.18" stroke="#7A1616" stroke-width="1.69" stroke-miterlimit="8.45"/>
<path d="M4.19507 80.9795L18.4799 139.401" stroke="#7A1616" stroke-width="1.69" stroke-miterlimit="8.45"/>
<path d="M27.2144 139.291L40.608 87.4853H40.6141L42.2614 81.1087L42.3167 80.8752V80.8691L42.4397 80.4268" stroke="#7A1616" stroke-width="1.69" stroke-miterlimit="8.45"/>
<path d="M51.7764 13.2939C51.7764 18.9641 47.5106 23.4486 42.1999 23.4486C36.8892 23.4486 32.7094 18.9641 32.7094 13.4597C32.7094 10.1609 34.0801 7.27969 36.2499 5.4183C35.3648 5.3323 34.3998 5.24629 33.5146 5.24629C21.4487 5.24629 14.8472 15.8249 14.8472 30.2123C14.8472 44.5996 21.1229 54.4165 33.5945 54.4165C42.1999 54.4165 48.8014 49.508 51.9362 42.1423H53.6265C49.2808 55.2642 41.075 63.1337 28.3637 63.1337C12.3516 63.1337 1.49048 50.6937 1.49048 32.0736C1.49048 13.4536 13.3966 0 31.8243 0C44.4557 0 51.7764 5.84218 51.7764 13.2877V13.2939Z" fill="#7A1616"/>
<path d="M76.6334 17.5264C89.5845 17.5264 98.0362 26.5814 98.0362 40.0412C98.0362 53.5009 89.3448 63.1458 76.2339 63.1458C63.1231 63.1458 54.6714 53.9187 54.6714 40.3791C54.6714 26.8395 63.5226 17.5264 76.6334 17.5264ZM76.2339 57.8933C81.3049 57.8933 84.6794 50.8655 84.6794 40.3729C84.6794 29.8803 81.2988 22.8525 76.3138 22.8525C71.3289 22.8525 68.0281 29.8742 68.0281 40.5388C68.0281 51.2034 71.3289 57.8872 76.2339 57.8872V57.8933Z" fill="#7A1616"/>
<path d="M129.329 34.113C129.329 27.9329 127.073 24.2102 123.053 24.2102C119.273 24.2102 116.538 27.8469 115.972 33.4373V54.5146C115.972 56.548 117.097 58.6612 118.548 59.9329L119.353 60.5226V62.298H99.3208V60.5226L100.046 59.9329C101.657 58.6612 102.701 56.548 102.701 54.5146V28.8667C102.701 26.8333 101.657 24.634 100.046 23.4484L99.3208 22.8587V21.0833L112.678 18.4601H115.978V25.1439C118.873 20.4014 123.705 17.5264 129.415 17.5264C138.026 17.5264 142.692 23.8723 142.692 33.2652V55.1842C142.692 57.3834 143.337 58.2312 144.948 58.2312C144.948 58.2312 146.152 58.2312 146.878 57.0456C146.878 59.1588 143.903 63.1396 137.867 63.1396C132.556 63.1396 129.341 60.0926 129.341 53.4088V34.113H129.329Z" fill="#7A1616"/>
<path d="M151.051 23.7005H147.916V18.4542H151.051V15.917C151.051 4.49068 157.567 0 167.143 0C176.72 0 180.58 4.14666 180.58 9.73083C180.58 14.3874 177.765 17.4344 174.144 17.4344C170.524 17.4344 167.629 14.3874 167.629 10.6646C167.629 8.46533 168.514 6.51793 170.044 5.24629C169.645 4.90842 169 4.73641 168.354 4.73641C165.379 4.73641 164.334 8.7172 164.334 16.7525V18.448H169.725V23.6943H164.334V54.5025C164.334 56.5359 165.379 58.6491 166.91 59.9208L167.715 60.5105V62.2859H147.683V60.5105L148.408 59.9208C150.019 58.6491 150.984 56.5359 150.984 54.5025L151.064 23.6943H151.051V23.7005Z" fill="#7A1616"/>
<path d="M209.217 32.0799C209.217 41.6449 201.411 48.8385 190.796 48.8385C188.626 48.8385 186.37 48.5007 184.04 47.9048C186.05 52.0514 189.591 54.4227 194.176 54.4227C201.903 54.4227 206.648 47.7389 207.453 44.7717H209.143C206.568 55.7742 199.733 63.1399 189.032 63.1399C177.285 63.1399 168.68 54.4227 168.68 41.049C168.68 26.9995 178.09 17.5205 192.093 17.5205C203.999 17.5205 209.23 24.3763 209.23 32.0799H209.217ZM191.681 22.8589C186.856 22.8589 182.024 29.2909 182.024 38.6838C182.024 41.0551 182.344 43.2544 182.83 45.2018C199.727 40.1213 199.401 22.8589 191.681 22.8589Z" fill="#7A1616"/>
<path d="M231.179 60.5167V62.292H211.147V60.5167L211.873 59.9269C213.483 58.6553 214.528 56.542 214.528 54.5086V28.8608C214.528 26.8274 213.483 24.6281 211.873 23.4424L211.147 22.8527V21.0773L224.504 18.4542H227.805V54.5086C227.805 56.542 228.93 58.6553 230.38 59.9269L231.185 60.5167H231.179ZM221.123 0C225.389 0 228.85 3.72278 228.85 8.12745C228.85 12.5321 225.389 16.1689 221.123 16.1689C216.857 16.1689 213.483 12.5321 213.483 8.12745C213.483 3.72278 216.937 0 221.123 0Z" fill="#7A1616"/>
<path d="M235.845 23.7007H232.064V18.4544H235.845C240.996 18.4544 244.13 15.7452 244.13 10.585H249.121V18.4544H253.867V23.7007H249.121V55.1846C249.121 57.3839 249.847 58.2316 251.371 58.2316C251.371 58.2316 252.656 58.2316 253.301 57.046C253.301 59.1592 250.406 63.14 244.29 63.14C238.979 63.14 235.845 60.093 235.845 53.4092V23.7007Z" fill="#7A1616"/>
<path d="M276.068 17.5264C289.019 17.5264 297.471 26.5814 297.471 40.0412C297.471 53.5009 288.78 63.1458 275.669 63.1458C262.558 63.1458 254.106 53.9187 254.106 40.3791C254.106 26.8395 262.957 17.5264 276.068 17.5264ZM275.669 57.8933C280.74 57.8933 284.114 50.8655 284.114 40.3729C284.114 29.8803 280.734 22.8525 275.749 22.8525C270.764 22.8525 267.463 29.8742 267.463 40.5388C267.463 51.2034 270.764 57.8872 275.669 57.8872V57.8933Z" fill="#7A1616"/>
<path d="M80.9791 68.8651L80.9668 66.8747L106.893 66.6781C127.436 66.5184 141.001 80.3652 141.167 102.29C141.333 124.314 127.786 138.769 107.748 138.922L81.5261 139.125L81.5077 137.03L82.399 136.324C84.3843 134.812 85.6567 132.312 85.6383 129.922L85.2264 76.0096C85.208 73.6199 83.8926 71.0337 81.8888 69.6576L80.9852 68.8651H80.9791ZM102.111 132.779L105.203 132.754C117.066 132.662 124.756 121.144 124.614 102.21C124.473 83.6764 116.808 72.7722 105.246 72.8582L101.656 72.8828L102.117 132.773H102.111V132.779Z" fill="#7A1616"/>
<path d="M247.425 98.7765C247.468 104.06 243.509 107.973 238.525 108.016C233.441 108.053 229.421 104.201 229.384 99.2188C229.36 96.3315 230.638 93.825 232.624 92.2155C232.126 92.0189 230.724 91.5336 228.831 91.5459C221.75 91.6012 215.825 99.2188 215.911 110.283C215.997 121.242 221.935 128.774 231.112 128.7C240.682 128.626 246.503 120.708 247.474 117.212L249.57 117.194C246.964 128.178 240.461 138.892 225.905 139.002C212.346 139.107 199.512 129.738 199.383 113.195C199.266 97.6461 210.336 85.4027 226.987 85.2799C238.654 85.1877 247.376 91.2019 247.431 98.7765H247.425Z" fill="#7A1616"/>
<path d="M301.387 101.854C301.473 113.115 291.865 121.66 278.705 121.758C276.013 121.777 273.216 121.402 270.321 120.726C272.854 125.592 277.261 128.35 282.94 128.301C292.511 128.227 298.332 120.308 299.303 116.813L301.399 116.795C298.307 129.775 289.898 138.511 276.64 138.609C262.085 138.72 251.334 128.54 251.211 112.795C251.082 96.2517 262.663 85.0035 280.015 84.8683C294.773 84.7577 301.313 92.7746 301.387 101.842V101.854ZM279.578 91.159C273.597 91.202 267.672 98.8257 267.758 109.883C267.777 112.672 268.201 115.259 268.815 117.55C289.708 111.407 289.155 91.0852 279.578 91.159Z" fill="#7A1616"/>
<path d="M53.7433 202.633C54.1367 194.021 59.1708 186.415 65.7662 181.151C73.3819 175.075 82.8048 172.347 92.3997 171.512C103.439 170.554 114.583 171.782 125.592 172.606C137.326 173.484 149.06 174.362 160.794 175.241C172.528 176.119 184.176 176.998 195.867 177.87C207.539 178.749 219.212 179.627 230.89 180.5C242.335 181.353 253.805 182.158 265.287 182.134C276.376 182.115 287.513 181.335 298.381 179.031C307.453 177.108 316.329 174.117 324.584 169.872C332.759 165.67 340.326 160.196 346.54 153.402C348.052 151.749 349.472 150.029 350.812 148.229C350.873 148.143 350.83 147.474 350.83 147.474C350.83 146.859 350.843 146.251 350.83 145.637C350.818 145.023 350.83 144.414 350.83 143.8C350.83 143.659 350.744 143.137 350.812 143.044C345.304 150.429 338.285 156.559 330.454 161.382C322.531 166.253 313.84 169.823 304.878 172.274C294.613 175.081 283.991 176.371 273.37 176.789C261.9 177.244 250.418 176.685 238.979 175.898C227.54 175.112 215.763 174.178 204.158 173.306C192.424 172.427 180.69 171.549 168.956 170.67C157.266 169.792 145.575 168.913 133.884 168.041C128.057 167.605 122.223 167.163 116.396 166.733C110.932 166.327 105.455 165.965 99.9724 165.995C89.9042 166.051 79.4856 167.47 70.6651 172.624C63.3936 176.869 57.0809 183.491 54.7022 191.717C54.1428 193.646 53.8294 195.636 53.7372 197.645C53.688 198.702 53.7187 199.771 53.7187 200.84C53.7187 201.356 53.7187 201.872 53.731 202.394C53.731 202.443 53.7433 202.91 53.7494 202.652V202.633H53.7433Z" fill="#7A1616"/>
<path d="M168.777 84.8853C184.832 84.7625 195.379 95.3472 195.502 111.191C195.625 127.237 184.942 138.479 168.691 138.601C152.838 138.724 141.885 127.943 141.762 112.001C141.639 95.8571 152.525 85.0143 168.777 84.8853ZM168.648 132.421C174.929 132.372 179.054 124.073 178.956 111.713C178.857 99.156 174.61 91.1145 168.426 91.1637C162.347 91.2128 158.223 99.5123 158.315 112.069C158.407 124.423 162.562 132.464 168.641 132.421H168.648Z" fill="#7A1616"/>
</svg>
